<?xml version="1.0"?><svg version="1.2" baseProfile="tiny-ps" viewBox="0 0 300 300" xmlns="http://www.w3.org/2000/svg" xmlns:xlink="http://www.w3.org/1999/xlink"><title>VTNetworks</title><g><g fill="#f2dbc1" transform="matrix(.1 0 0 -.1 0 300)"><path d="M0 1500V0h3000v3000H0V1500z"/></g><g fill="#e5c7a8" transform="matrix(.1 0 0 -.1 0 300)"><path d="M0 1500V0h3000v3000H0V1500zm1069 603c-12-21-31-50-41-65l-19-28H770v-9c0-5 13-31 29-58 15-26 46-79 68-118 22-38 56-99 77-133l36-64-7-11-6-12 8 7 8 7 31-52c46-75 50-85 27-57-11 14-21 28-21 32s-6 6-12 4c-7-1-10-1-6 1s4 11 1 19l-5 15-16-13-15-13 12 24 13 23-13-7-12-8-14 19-13 18-17-17-17-16 12-26 12-25 27-1 28-1-17-5c-10-2-18-9-18-14v-10l12 7 11 7-7-12-7-11-10 5-9 6v-10c0-6-4-11-9-11h-8l5 25 4 25h-10c-6 0-13-8-17-19-6-20 3-51 15-51 4 0 10-9 13-20 8-31 0-24-29 28-15 26-64 110-109 187-46 77-118 201-160 275-43 74-86 150-97 168l-20 32h574l-23-37z"/></g><g fill="#d9b794" transform="matrix(.1 0 0 -.1 0 300)"><path d="M0 1500V0h3000v3000H0V1500zm1090 635c0-3-17-32-37-65l-38-60H781l-5-8c-5-9 368-665 381-669l9-3 72 127c40 71 96 169 125 218 29 50 102 174 161 278l108 187 142-1 141-2-35-7c-19-4-29-8-22-9 6 0 12-5 12-11v-10h-18c-10 0-22-3-25-6l-6-7 6-11c4-6 8-17 9-25l3-13-22-6-21-5 20-8 19-8h-57l-58-1-23-37c-13-21-108-186-212-368-204-359-244-426-260-437l-10-8h8c9 0-37-85-58-108l-12-13-70 123c-38 68-117 204-175 303-85 146-369 638-385 668l-4 7h285c157 0 286-2 286-5zm806-363-18-17 13 22c7 12 15 20 18 17 3-2-3-12-13-22zm-92-162c-10-16-20-27-22-25-5 5 26 55 34 55 3 0-3-13-12-30zm126-50c-6-11-13-20-16-20-2 0 0 9 6 20s13 20 16 20c2 0 0-9-6-20zm-188-65-4-25-9 6-9 5 10 20c14 26 18 24 12-6zm-29-45c-3-11-9-20-15-20h-9l11 20c6 11 12 20 14 20s2-9-1-20zm-55-95c-13-24-27-45-32-45h-8l14 23c8 12 20 32 27 45 22 42 21 22-1-23zm-72-120c-9-14-15-29-12-34l5-8h-29l13 21c7 12 17 27 21 34 4 6 10 12 13 12s-2-11-11-25zm-108-185c-7-10-14-17-17-15-4 4 18 35 25 35 2 0-1-9-8-20z"/></g><g fill="#ac897c" transform="matrix(.1 0 0 -.1 0 300)"><path d="M0 1500V0h3000v3000H0V1500zm1093 643c2-5-15-37-38-73l-42-65-120-5-120-5 191-332c105-182 193-330 197-327 6 3 77 125 349 599l115 200 462 3 463 2-31-52c-17-29-36-58-42-65l-12-11-170-6c-93-3-262-6-375-6h-205l-136-237c-361-631-411-718-417-725l-7-6-315 545c-173 300-316 552-318 560l-3 13h570l4-7zm997-300c0-6-107-197-175-313-33-55-127-220-195-340-104-184-313-546-319-552l-6-7-43 75-42 76 82 142c45 77 122 211 171 296 50 85 122 211 162 280 161 280 188 326 198 338l9 12h79c44 0 79-3 79-7z"/></g><g fill="#694643" transform="matrix(.1 0 0 -.1 0 300)"><path d="M0 1500V0h3000v3000H0V1500zm1100 644c0-3-19-37-42-75l-43-69H898c-65 0-118-2-118-4 0-10 371-651 378-653 4-1 25 30 47 69s126 220 231 402l192 331 466 3c256 1 466 0 466-3s-21-37-46-75l-47-70-376-2-375-3-276-482c-151-266-278-483-282-483-3 0-44 66-91 148-47 81-134 233-194 337-300 519-363 628-363 632 0 1 133 3 295 3s295-3 295-6zm983-328c-10-19-166-293-348-610l-330-576-9 3c-10 3-86 134-86 148 0 6 138 248 306 540l307 529h177l-17-34z"/></g><g fill="#401b2c" transform="matrix(.1 0 0 -.1 0 300)"><path d="M0 1500V0h3000v3000H0V1500zm1105 650 6-9-47-71-47-70H790v-10c0-13 361-640 369-640 3 0 48 73 99 163 51 89 120 209 154 267 33 58 96 166 139 241l79 136 467-4c258-3 469-6 470-7s-21-36-49-79l-51-77h-376l-376-1-275-484c-151-267-278-485-282-485-3 0-17 19-30 43-31 54-306 531-433 752-54 94-118 204-142 245-23 41-43 81-43 88v12h589l6-10zm993-308c-3-10-124-225-268-478-145-252-299-523-344-601-45-79-84-143-88-143-3 0-27 36-53 80l-46 81 65 112c35 62 104 180 152 262 48 83 104 179 124 215s69 121 109 190 96 164 123 213l50 87h180l-4-18z"/></g></g></svg>